<svg xmlns="http://www.w3.org/2000/svg" width="256" height="256" viewBox="0 0 256 256">
  <defs>
    <linearGradient id="gradient" x1="0%" y1="0%" x2="100%" y2="100%">
      <stop offset="0%" stop-color="#10b981" />
      <stop offset="100%" stop-color="#047857" />
    </linearGradient>
  </defs>
  <rect width="256" height="256" rx="32" fill="url(#gradient)" />
  <path d="M128 50c-11.05 0-20 8.95-20 20v12c0 11.05 8.95 20 20 20s20-8.95 20-20V70c0-11.05-8.95-20-20-20zm0 12c4.42 0 8 3.58 8 8v12c0 4.42-3.58 8-8 8s-8-3.58-8-8V70c0-4.42 3.58-8 8-8z" fill="white" />
  <path d="M168 98v12c0 22.09-17.91 40-40 40s-40-17.91-40-40V98c-11.05 0-20 8.95-20 20v12c0 33.14 26.86 60 60 60 13.55 0 26.08-4.47 36.17-12.03l9.83 9.83v-29.8c15.28-6.73 28-20.22 34-36.97V118c0-11.05-8.95-20-20-20z" fill="white" />
  <path d="M128 170c-5.52 0-10 4.48-10 10v26c0 5.52 4.48 10 10 10s10-4.48 10-10v-26c0-5.52-4.48-10-10-10z" fill="white" />
</svg> 